<svg preserveAspectRatio="none" overflow="visible" style="display: block;" width="28.2349" height="32.1106" viewBox="0 0 28.2349 32.1106" fill="none" xmlns="http://www.w3.org/2000/svg">
<g id="Shopping Bag">
<path id="Vector" d="M21.5514 26.9445L10.4449 32H0.401505C0.16738 32 -0.0170575 31.8005 0.00125497 31.5671L1.89882 7.4265C1.91526 7.21762 2.08951 7.0565 2.29907 7.0565H18.7684L19.5252 7.13744C19.5252 7.13744 21.7856 26.9445 21.5514 26.9445Z" fill="#2CB9E4"/>
<path id="Vector_2" d="M16.8319 19.4299C16.8319 19.4299 13.898 13.9595 12.4376 15.42C10.9771 16.8805 11.0355 20.2713 12.4376 21.4093L17.4146 21.3516L16.8319 19.4299Z" fill="#FF6666"/>
<path id="Vector_3" d="M19.4068 19.4299C19.4068 19.4299 22.564 13.9595 24.0245 15.42C25.485 16.8805 25.4266 20.2713 24.0245 21.4093L19.3747 21.5616L19.4068 19.4299Z" fill="#FF6666"/>
<path id="Vector_4" d="M19.7651 21.4093H16.6969V18.7C16.6969 18.0099 17.2563 17.4505 17.9464 17.4505H18.5156C19.2057 17.4505 19.7651 18.0099 19.7651 18.7V21.4093Z" fill="#FF6666"/>
<path id="Vector_5" d="M25.5838 23.5252V22.3382C25.5838 22.8184 25.1945 23.2077 24.7143 23.2077H8.76483V31.2411C8.76483 31.7213 9.15415 32.1106 9.63433 32.1106H16.5916L18.1895 31.4763L19.6599 32.1106H26.6172C27.0974 32.1106 27.4867 31.7213 27.4867 31.2411V22.5252L26.6215 23.8908L25.5838 23.5252Z" fill="#6C5EEB"/>
<path id="Vector_6" d="M19.7651 24.4146L18.231 23.7803L16.6969 24.4146V32H19.7651V24.4146Z" fill="#FF6666"/>
<path id="Vector_7" d="M16.6969 30.0971H19.7651V32H16.6969V30.0971Z" fill="#FF6666"/>
<path id="Vector_8" d="M15.3869 10.4649H15.2556V4.33213C15.2556 1.94338 13.3122 0 10.9235 0C8.53474 0 6.59137 1.94338 6.59137 4.33213V10.4649H6.47568C6.21293 10.4649 5.99999 10.6779 5.99999 10.9407C5.99999 11.2034 6.21299 11.4164 6.47568 11.4164H7.68974C7.95249 11.4164 8.16543 11.2034 8.16543 10.9407C8.16543 10.6779 7.95243 10.4649 7.68974 10.4649H7.54287V4.33213C7.54287 2.468 9.05943 0.951437 10.9236 0.951437C12.7877 0.951437 14.3042 2.468 14.3042 4.33213V10.4649H14.1729C13.9102 10.4649 13.6972 10.6779 13.6972 10.9407C13.6972 11.2034 13.9102 11.4164 14.1729 11.4164H15.387C15.6497 11.4164 15.8627 11.2034 15.8627 10.9407C15.8626 10.6779 15.6496 10.4649 15.3869 10.4649Z" fill="#6C5EEB"/>
<path id="Vector_9" d="M27.8666 24.3054H19.7651L18.231 23.6711L16.6969 24.3054H8.5955C8.39206 24.3054 8.22712 24.1405 8.22712 23.9371V21.4782C8.22712 21.2747 8.39206 21.1098 8.5955 21.1098H16.6969L18.2311 21.7441L19.7652 21.1098H27.8666C28.07 21.1098 28.2349 21.2747 28.2349 21.4782V23.9371C28.2349 24.1405 28.07 24.3054 27.8666 24.3054Z" fill="#7870EF"/>
<path id="Vector_10" d="M16.6969 21.2189H19.7651V24.4146H16.6969V21.2189Z" fill="#FF6666"/>
</g>
</svg>
